<svg xmlns="http://www.w3.org/2000/svg" xmlns:xlink="http://www.w3.org/1999/xlink" version="1.1" width="1000" height="1000" viewBox="0 0 1000 1000" xml:space="preserve">
<desc>Created with Fabric.js 3.5.0</desc>
<defs>
</defs>
<rect x="0" y="0" width="100%" height="100%" fill="#ffffff"/>
<g transform="matrix(6.595 0 0 6.59 499.8311 649.3474)" id="585151">
<g style="" vector-effect="non-scaling-stroke">
		<g transform="matrix(1.3333 0 0 1.3333 -0.0019 -23.6946)" clip-path="url(#CLIPPATH_1)">
<clipPath id="CLIPPATH_1">
	<path transform="matrix(1 0 0 1 0 0) translate(-187.5, -169.7305)" id="a6bd3c6d56" d="M 131.25 113.480469 L 243.75 113.480469 L 243.75 225.980469 L 131.25 225.980469 Z M 131.25 113.480469" stroke-linecap="round"/>
</clipPath>
<path style="stroke: none; stroke-width: 1; stroke-dasharray: none; stroke-linecap: butt; stroke-dashoffset: 0; stroke-linejoin: miter; stroke-miterlimit: 4; is-custom-font: none; font-file-url: none; fill: rgb(208,233,240); fill-rule: nonzero; opacity: 1;" transform=" translate(-187.5, -169.7305)" d="M 148.5 113.480469 L 226.5 113.480469 C 231.074219 113.480469 235.460938 115.296875 238.699219 118.53125 C 241.933594 121.769531 243.75 126.15625 243.75 130.730469 L 243.75 208.730469 C 243.75 213.304688 241.933594 217.691406 238.699219 220.929688 C 235.460938 224.164062 231.074219 225.980469 226.5 225.980469 L 148.5 225.980469 C 143.925781 225.980469 139.539062 224.164062 136.300781 220.929688 C 133.066406 217.691406 131.25 213.304688 131.25 208.730469 L 131.25 130.730469 C 131.25 126.15625 133.066406 121.769531 136.300781 118.53125 C 139.539062 115.296875 143.925781 113.480469 148.5 113.480469" stroke-linecap="round"/>
</g>
		<g transform="matrix(1.3333 0 0 1.3333 -0.1812 -23.5843)" clip-path="url(#CLIPPATH_2)">
<clipPath id="CLIPPATH_2">
	<path transform="matrix(1 0 0 1 0.1353 0) translate(-187.5, -169.8125)" id="db98bc161e" d="M 162 140.1875 L 213 140.1875 L 213 199.4375 L 162 199.4375 Z M 162 140.1875" stroke-linecap="round"/>
</clipPath>
<path style="stroke: none; stroke-width: 1; stroke-dasharray: none; stroke-linecap: butt; stroke-dashoffset: 0; stroke-linejoin: miter; stroke-miterlimit: 4; is-custom-font: none; font-file-url: none; fill: rgb(0,85,126); fill-rule: nonzero; opacity: 1;" transform=" translate(-187.3647, -169.8125)" d="M 210.796875 169.136719 C 210.796875 169.136719 206.128906 171.632812 203.433594 177.101562 L 207.589844 176.601562 C 205.867188 180.441406 203.90625 182.945312 201.933594 184.476562 C 199.101562 179.957031 194.191406 178.894531 189.648438 178.4375 L 189.308594 168.300781 C 189.339844 168.292969 189.367188 168.285156 189.394531 168.277344 C 192.007812 167.597656 194.972656 166.832031 197.925781 165.796875 C 201.898438 164.394531 204.363281 160.75 204.054688 156.722656 C 203.878906 154.425781 202.835938 152.292969 201.039062 150.5625 C 199.300781 148.886719 196.980469 147.695312 194.136719 147.007812 C 194.128906 143.242188 191.089844 140.1875 187.363281 140.1875 C 183.632812 140.1875 180.59375 143.25 180.59375 147.015625 C 180.59375 150.269531 182.867188 152.996094 185.894531 153.675781 L 185.796875 156.757812 L 181.574219 156.757812 C 181.097656 155.835938 180.140625 155.199219 179.035156 155.199219 C 177.449219 155.199219 176.167969 156.496094 176.167969 158.089844 C 176.167969 159.683594 177.449219 160.980469 179.035156 160.980469 C 180.140625 160.980469 181.097656 160.351562 181.574219 159.421875 L 185.710938 159.421875 L 185.46875 166.710938 C 183.347656 167.304688 181.488281 167.929688 180.003906 168.722656 C 177.257812 170.203125 176.074219 172.199219 176.378906 174.832031 C 176.648438 177.15625 177.96875 178.78125 180.28125 179.65625 C 181.644531 180.171875 183.269531 180.398438 185.007812 180.5625 L 184.980469 181.386719 C 184.980469 183.65625 182.050781 186.488281 178.253906 186.488281 C 174.746094 186.488281 170.503906 184.078125 167.132812 176.585938 L 171.289062 177.085938 C 168.59375 171.628906 163.917969 169.121094 163.917969 169.121094 C 163.917969 169.121094 161.511719 173.878906 162.390625 179.917969 L 165.585938 177.058594 C 166.140625 182.746094 168.523438 188.769531 178.777344 193.335938 C 183.171875 195.289062 185.058594 195.816406 187.363281 199.4375 C 189.679688 195.816406 191.566406 195.289062 195.953125 193.335938 C 206.207031 188.777344 208.589844 182.746094 209.144531 177.058594 L 212.339844 179.917969 C 213.21875 173.878906 210.796875 169.136719 210.796875 169.136719 Z M 193.675781 149.488281 C 197.472656 150.46875 201.253906 152.839844 201.566406 156.917969 C 201.785156 159.792969 199.988281 162.40625 197.101562 163.421875 C 194.414062 164.363281 191.679688 165.085938 189.222656 165.722656 L 189.019531 159.429688 L 193.15625 159.429688 C 193.632812 160.351562 194.589844 160.988281 195.695312 160.988281 C 197.277344 160.988281 198.5625 159.691406 198.5625 158.097656 C 198.5625 156.5 197.277344 155.207031 195.695312 155.207031 C 194.589844 155.207031 193.632812 155.835938 193.15625 156.765625 L 188.933594 156.765625 L 188.835938 153.683594 C 191.046875 153.179688 192.863281 151.585938 193.675781 149.488281 Z M 183.496094 147.015625 C 183.496094 144.867188 185.234375 143.113281 187.363281 143.113281 C 189.492188 143.113281 191.234375 144.859375 191.234375 147.015625 C 191.234375 149.167969 189.5 150.914062 187.363281 150.914062 C 185.234375 150.914062 183.496094 149.167969 183.496094 147.015625 Z M 178.863281 174.546875 C 178.679688 172.988281 179.351562 171.941406 181.183594 170.953125 C 182.296875 170.351562 183.730469 169.84375 185.378906 169.367188 L 185.09375 178.050781 C 181.019531 177.628906 179.140625 176.941406 178.863281 174.546875 Z M 189.742188 181.402344 L 189.726562 180.976562 C 193.757812 181.402344 197.578125 182.308594 199.785156 185.773438 C 198.640625 186.28125 197.519531 186.503906 196.46875 186.503906 C 192.671875 186.503906 189.742188 183.675781 189.742188 181.402344 Z M 189.742188 181.402344" stroke-linecap="round"/>
</g>
</g>
</g>
</svg>